<svg width="176" height="48" viewBox="0 0 176 48" fill="none" xmlns="http://www.w3.org/2000/svg">
<path d="M4.704 26.548C4.8 26.948 4.96 27.284 5.184 27.556C5.424 27.812 5.696 28.02 6 28.18C6.32 28.324 6.672 28.428 7.056 28.492C7.456 28.556 7.872 28.588 8.304 28.588C8.672 28.588 9.024 28.564 9.36 28.516C9.712 28.468 10.016 28.388 10.272 28.276C10.544 28.148 10.76 27.98 10.92 27.772C11.08 27.564 11.16 27.3 11.16 26.98C11.16 26.708 11.088 26.484 10.944 26.308C10.816 26.132 10.64 25.996 10.416 25.9C10.192 25.788 9.936 25.716 9.648 25.684C9.36 25.636 9.072 25.612 8.784 25.612H6.12V22.084H8.328C8.984 22.084 9.52 21.98 9.936 21.772C10.352 21.548 10.56 21.172 10.56 20.644C10.544 20.388 10.456 20.18 10.296 20.02C10.152 19.844 9.96 19.708 9.72 19.612C9.496 19.5 9.24 19.428 8.952 19.396C8.664 19.348 8.376 19.324 8.088 19.324C7.224 19.324 6.528 19.468 6 19.756C5.488 20.044 5.192 20.5 5.112 21.124H0.96C1.008 20.052 1.24 19.148 1.656 18.412C2.072 17.66 2.608 17.06 3.264 16.612C3.936 16.148 4.696 15.812 5.544 15.604C6.408 15.396 7.304 15.292 8.232 15.292C8.952 15.292 9.656 15.348 10.344 15.46C11.032 15.556 11.712 15.78 12.384 16.132C13.072 16.5 13.656 17.012 14.136 17.668C14.632 18.308 14.88 19.084 14.88 19.996C14.88 20.764 14.744 21.396 14.472 21.892C14.216 22.372 13.832 22.82 13.32 23.236C14.168 23.604 14.76 24.172 15.096 24.94C15.432 25.692 15.568 26.508 15.504 27.388C15.504 27.932 15.416 28.436 15.24 28.9C15.08 29.348 14.864 29.756 14.592 30.124C14.336 30.492 14.04 30.82 13.704 31.108C13.384 31.38 13.048 31.612 12.696 31.804C11.896 32.188 11.136 32.428 10.416 32.524C9.712 32.636 8.976 32.692 8.208 32.692C7.216 32.692 6.28 32.58 5.4 32.356C4.52 32.132 3.736 31.78 3.048 31.3C2.36 30.804 1.8 30.172 1.368 29.404C0.936 28.62 0.672 27.668 0.576 26.548H4.704ZM25.0268 31.084C24.6748 31.468 24.3148 31.772 23.9468 31.996C23.5948 32.204 23.2268 32.364 22.8428 32.476C22.4748 32.588 22.1308 32.652 21.8108 32.668C21.4908 32.684 21.2508 32.692 21.0908 32.692C20.5628 32.692 20.0428 32.612 19.5308 32.452C19.0348 32.292 18.5948 32.044 18.2108 31.708C17.8268 31.372 17.5148 30.956 17.2748 30.46C17.0348 29.948 16.9148 29.332 16.9148 28.612C16.9148 27.876 17.0988 27.236 17.4668 26.692C17.8508 26.148 18.3068 25.74 18.8348 25.468C19.2188 25.276 19.6268 25.132 20.0588 25.036C20.5068 24.924 20.9548 24.852 21.4028 24.82C21.8668 24.788 22.3468 24.772 22.8428 24.772H24.9068C24.8908 24.324 24.7228 23.948 24.4028 23.644C24.0988 23.324 23.6668 23.164 23.1068 23.164C22.6908 23.164 22.3068 23.252 21.9548 23.428C21.6188 23.604 21.4268 23.828 21.3788 24.1H17.1548C17.2508 23.316 17.4828 22.644 17.8508 22.084C18.2188 21.508 18.6748 21.044 19.2188 20.692C19.7628 20.324 20.3628 20.052 21.0188 19.876C21.6748 19.7 22.3548 19.612 23.0588 19.612C23.9068 19.612 24.6428 19.7 25.2668 19.876C25.9068 20.052 26.4588 20.316 26.9228 20.668C28.2668 21.644 28.9388 23.324 28.9388 25.708V32.5H25.0268V31.084ZM22.6028 27.388C22.1388 27.388 21.7708 27.468 21.4988 27.628C21.2428 27.788 21.1148 28.052 21.1148 28.42C21.1148 28.74 21.2348 28.996 21.4748 29.188C21.7308 29.364 22.0668 29.452 22.4828 29.452C22.8188 29.452 23.1308 29.396 23.4188 29.284C23.7228 29.172 23.9788 29.02 24.1868 28.828C24.4108 28.62 24.5868 28.396 24.7148 28.156C24.8588 27.916 24.9388 27.66 24.9548 27.388H22.6028ZM35.4229 28.132V32.5H31.1749V19.852H35.4229V24.316H37.1509L39.7909 19.852H44.5669L40.7749 25.756L44.3749 32.5H39.5269L37.3189 28.132H35.4229ZM53.1518 31.084C52.7998 31.468 52.4398 31.772 52.0718 31.996C51.7198 32.204 51.3518 32.364 50.9678 32.476C50.5998 32.588 50.2558 32.652 49.9358 32.668C49.6158 32.684 49.3758 32.692 49.2158 32.692C48.6878 32.692 48.1678 32.612 47.6558 32.452C47.1598 32.292 46.7198 32.044 46.3358 31.708C45.9518 31.372 45.6398 30.956 45.3998 30.46C45.1598 29.948 45.0398 29.332 45.0398 28.612C45.0398 27.876 45.2238 27.236 45.5918 26.692C45.9758 26.148 46.4318 25.74 46.9598 25.468C47.3438 25.276 47.7518 25.132 48.1838 25.036C48.6318 24.924 49.0798 24.852 49.5278 24.82C49.9918 24.788 50.4718 24.772 50.9678 24.772H53.0318C53.0158 24.324 52.8478 23.948 52.5278 23.644C52.2238 23.324 51.7918 23.164 51.2318 23.164C50.8158 23.164 50.4318 23.252 50.0798 23.428C49.7438 23.604 49.5518 23.828 49.5038 24.1H45.2798C45.3758 23.316 45.6078 22.644 45.9758 22.084C46.3438 21.508 46.7998 21.044 47.3438 20.692C47.8878 20.324 48.4878 20.052 49.1438 19.876C49.7998 19.7 50.4798 19.612 51.1838 19.612C52.0318 19.612 52.7678 19.7 53.3918 19.876C54.0318 20.052 54.5838 20.316 55.0478 20.668C56.3918 21.644 57.0638 23.324 57.0638 25.708V32.5H53.1518V31.084ZM50.7278 27.388C50.2638 27.388 49.8958 27.468 49.6238 27.628C49.3678 27.788 49.2398 28.052 49.2398 28.42C49.2398 28.74 49.3598 28.996 49.5998 29.188C49.8558 29.364 50.1918 29.452 50.6078 29.452C50.9438 29.452 51.2558 29.396 51.5438 29.284C51.8478 29.172 52.1038 29.02 52.3118 28.828C52.5358 28.62 52.7118 28.396 52.8398 28.156C52.9838 27.916 53.0638 27.66 53.0798 27.388H50.7278ZM70.2919 23.284C70.3239 23.716 70.2439 24.148 70.0519 24.58C69.8759 25.012 69.6119 25.34 69.2599 25.564C69.7399 25.852 70.0919 26.252 70.3159 26.764C70.5399 27.26 70.6519 27.788 70.6519 28.348C70.6199 29.148 70.4359 29.812 70.0999 30.34C69.7639 30.868 69.3479 31.308 68.8519 31.66C68.2759 32.06 67.6279 32.332 66.9079 32.476C66.1879 32.62 65.4599 32.692 64.7239 32.692C64.0519 32.692 63.3719 32.612 62.6839 32.452C61.9959 32.276 61.3639 32.004 60.7879 31.636C60.2119 31.252 59.7239 30.764 59.3239 30.172C58.9239 29.564 58.6759 28.828 58.5799 27.964H62.7079C62.7399 28.364 62.9719 28.66 63.4039 28.852C63.8359 29.044 64.3319 29.14 64.8919 29.14C65.3399 29.14 65.7319 29.068 66.0679 28.924C66.4199 28.78 66.5959 28.548 66.5959 28.228C66.5959 28.02 66.5239 27.852 66.3799 27.724C66.2359 27.596 65.9799 27.532 65.6119 27.532H63.4519V24.628H65.0839C65.6439 24.628 65.9879 24.548 66.1159 24.388C66.2599 24.228 66.3319 24.06 66.3319 23.884C66.3319 23.612 66.1799 23.412 65.8759 23.284C65.5719 23.156 65.1879 23.092 64.7239 23.092C64.2439 23.092 63.7959 23.188 63.3799 23.38C62.9639 23.572 62.7159 23.86 62.6359 24.244H58.6519C58.7959 23.332 59.0679 22.58 59.4679 21.988C59.8839 21.38 60.3719 20.9 60.9319 20.548C61.4919 20.196 62.1159 19.948 62.8039 19.804C63.4919 19.66 64.2039 19.588 64.9399 19.588C65.4999 19.588 66.0439 19.628 66.5719 19.708C67.1159 19.772 67.6439 19.924 68.1559 20.164C68.6999 20.436 69.1799 20.828 69.5959 21.34C70.0279 21.836 70.2599 22.484 70.2919 23.284ZM80.0111 31.084C79.6591 31.468 79.2991 31.772 78.9311 31.996C78.5791 32.204 78.2111 32.364 77.8271 32.476C77.4591 32.588 77.1151 32.652 76.7951 32.668C76.4751 32.684 76.2351 32.692 76.0751 32.692C75.5471 32.692 75.0271 32.612 74.5151 32.452C74.0191 32.292 73.5791 32.044 73.1951 31.708C72.8111 31.372 72.4991 30.956 72.2591 30.46C72.0191 29.948 71.8991 29.332 71.8991 28.612C71.8991 27.876 72.0831 27.236 72.4511 26.692C72.8351 26.148 73.2911 25.74 73.8191 25.468C74.2031 25.276 74.6111 25.132 75.0431 25.036C75.4911 24.924 75.9391 24.852 76.3871 24.82C76.8511 24.788 77.3311 24.772 77.8271 24.772H79.8911C79.8751 24.324 79.7071 23.948 79.3871 23.644C79.0831 23.324 78.6511 23.164 78.0911 23.164C77.6751 23.164 77.2911 23.252 76.9391 23.428C76.6031 23.604 76.4111 23.828 76.3631 24.1H72.1391C72.2351 23.316 72.4671 22.644 72.8351 22.084C73.2031 21.508 73.6591 21.044 74.2031 20.692C74.7471 20.324 75.3471 20.052 76.0031 19.876C76.6591 19.7 77.3391 19.612 78.0431 19.612C78.8911 19.612 79.6271 19.7 80.2511 19.876C80.8911 20.052 81.4431 20.316 81.9071 20.668C83.2511 21.644 83.9231 23.324 83.9231 25.708V32.5H80.0111V31.084ZM77.5871 27.388C77.1231 27.388 76.7551 27.468 76.4831 27.628C76.2271 27.788 76.0991 28.052 76.0991 28.42C76.0991 28.74 76.2191 28.996 76.4591 29.188C76.7151 29.364 77.0511 29.452 77.4671 29.452C77.8031 29.452 78.1151 29.396 78.4031 29.284C78.7071 29.172 78.9631 29.02 79.1711 28.828C79.3951 28.62 79.5711 28.396 79.6991 28.156C79.8431 27.916 79.9231 27.66 79.9391 27.388H77.5871ZM85.2233 23.644V19.852H97.4153V23.644H93.4073V32.5H89.1833V23.644H85.2233ZM102.993 19.852V23.404H105.417C106.153 23.404 106.833 23.476 107.457 23.62C108.081 23.764 108.625 24.012 109.089 24.364C109.569 24.7 109.937 25.156 110.193 25.732C110.465 26.292 110.601 26.98 110.601 27.796C110.553 28.692 110.361 29.436 110.025 30.028C109.689 30.62 109.249 31.1 108.705 31.468C108.177 31.836 107.569 32.1 106.881 32.26C106.209 32.42 105.513 32.5 104.793 32.5H98.7452V19.852H102.993ZM104.985 28.78C105.945 28.78 106.425 28.46 106.425 27.82C106.425 27.228 105.977 26.932 105.081 26.932H102.993V28.78H104.985Z" fill="#36C811"/>
<mask id="mask0_1_509" style="mask-type:alpha" maskUnits="userSpaceOnUse" x="128" y="0" width="48" height="48">
<circle cx="152" cy="24" r="24" transform="rotate(90 152 24)" fill="#36C811"/>
</mask>
<g mask="url(#mask0_1_509)">
<circle cx="152" cy="24" r="24" transform="rotate(90 152 24)" fill="#36C811"/>
<path d="M149.32 23.791V0.285714L154.68 0.285714V23.791V24.4748L155.166 23.9943L161.809 17.4326L165.593 21.1708L152 34.5984L138.407 21.1708L142.191 17.4326L148.834 23.9943L149.32 24.4748V23.791Z" fill="white" stroke="white" stroke-width="0.571429"/>
</g>
</svg>
