<svg width="48" height="48" viewBox="0 0 48 48" fill="none" xmlns="http://www.w3.org/2000/svg">
<path d="M36.3 19.8H21V36H36.3V19.8Z" fill="#36C811"/>
<path d="M24 36C24 29.3726 29.3726 24 36 24C42.6274 24 48 29.3726 48 36C48 42.6274 42.6274 48 36 48C29.3726 48 24 42.6274 24 36Z" fill="#36C811"/>
<path d="M48 24C48 19.2533 46.5924 14.6131 43.9553 10.6663C41.3181 6.71954 37.5698 3.6434 33.1844 1.8269C28.799 0.0103988 23.9734 -0.464881 19.3178 0.461164C14.6623 1.38721 10.3859 3.67299 7.02945 7.02945C3.67299 10.3859 1.38721 14.6623 0.461164 19.3178C-0.464881 23.9734 0.0103988 28.799 1.8269 33.1844C3.6434 37.5698 6.71954 41.3181 10.6663 43.9553C14.6131 46.5924 19.2533 48 24 48V24H48Z" fill="#36C811"/>
</svg>
