<svg width="48" height="49" viewBox="0 0 48 49" fill="none" xmlns="http://www.w3.org/2000/svg">
<ellipse cx="24" cy="24.5737" rx="24" ry="24.0005" fill="#36C811"/>
<path fill-rule="evenodd" clip-rule="evenodd" d="M23.6653 37.2931C30.6904 37.2931 36.3853 31.598 36.3853 24.5728C36.3853 17.5476 30.6904 11.8525 23.6653 11.8525C16.6403 11.8525 10.9453 17.5476 10.9453 24.5728C10.9453 26.9838 11.6161 29.2382 12.7812 31.1594L10.7591 37.8667L16.999 35.4083C18.9375 36.6035 21.2209 37.2931 23.6653 37.2931Z" fill="white"/>
<path d="M17.1912 22.486C16.6172 21.0853 16.7932 20.0799 17.0151 19.3488C17.2371 18.6176 17.6301 18.1481 18.1136 17.7037C18.213 17.6123 18.4527 17.6122 19.2579 17.6123C19.7043 17.6123 19.7905 18.2975 20.0926 19.166C20.3354 19.8642 20.8423 20.8111 20.8423 20.9939C20.8423 21.1766 19.7024 21.9856 19.4339 22.8217C19.3024 23.2314 20.5377 25.1082 22.0747 26.4884C23.6743 27.9248 25.5076 28.6543 25.8597 28.4341C26.2118 28.2139 26.3431 28.1206 26.6519 27.757C27.0447 27.2943 27.4828 26.5798 27.5321 26.4775C27.6202 26.2947 30.3489 27.757 30.613 27.8484C30.877 27.9398 30.613 28.9451 30.4369 29.3107C30.2609 29.6762 29.7617 30.1207 29.0285 30.4988C27.6204 31.225 25.8063 30.6082 23.6591 29.4935C22.6924 28.9916 22.2507 28.8537 20.8423 27.464C19.2579 26.0205 17.7653 23.8868 17.1912 22.486Z" fill="#36C811"/>
</svg>
