<svg width="48" height="48" viewBox="0 0 48 48" fill="none" xmlns="http://www.w3.org/2000/svg">
<rect width="48" height="48" rx="24" fill="#36C811"/>
<path d="M32.9608 14.242C24.502 17.5493 19.2737 19.713 11.1086 23.2922C10.5039 23.5573 10.5315 24.4205 11.157 24.6319C12.9834 25.2493 14.4441 25.624 16.5476 26.026C16.9014 26.0936 17.2667 26.0266 17.5732 25.8373C21.2726 23.5523 26.2008 20.1233 27.5632 19.4433C29.3205 18.5662 22.9783 24.7254 20.7815 26.8281C20.4545 27.1411 20.4864 27.6707 20.8476 27.9436C23.8509 30.2127 25.9306 31.614 28.8691 33.3414C29.7313 33.8483 30.8317 33.3457 31.0256 32.3645C32.2864 25.9858 33.012 21.7102 33.9548 15.0272C34.0331 14.4723 33.4827 14.0379 32.9608 14.242Z" fill="white"/>
</svg>
