<svg width="24" height="24" viewBox="0 0 24 24" fill="none" xmlns="http://www.w3.org/2000/svg">
<path id="Vector" d="M16.0026 17.0566L18.0701 14.9892C18.3486 14.7142 18.7009 14.5259 19.0843 14.4473C19.4676 14.3686 19.8656 14.403 20.2299 14.5461L22.7496 15.5522C23.1177 15.7016 23.4333 15.9566 23.6567 16.2851C23.8801 16.6136 24.0012 17.0009 24.0048 17.3981V22.013C24.0027 22.2833 23.9459 22.5502 23.8378 22.7979C23.7298 23.0456 23.5727 23.2689 23.3761 23.4543C23.1795 23.6397 22.9474 23.7834 22.6938 23.8767C22.4402 23.9701 22.1703 24.0111 21.9005 23.9974C4.24392 22.8991 0.681227 7.94686 0.00745467 2.22441C-0.0238223 1.9434 0.00475463 1.65895 0.0913054 1.38977C0.177856 1.1206 0.320419 0.872797 0.509616 0.662676C0.698812 0.452554 0.930355 0.284873 1.18901 0.170663C1.44766 0.0564526 1.72757 -0.0016975 2.01031 3.77211e-05H6.46829C6.8661 0.00121524 7.25446 0.121379 7.58342 0.345073C7.91239 0.568768 8.1669 0.885763 8.31424 1.25529L9.32029 3.77501C9.4682 4.1378 9.50593 4.53614 9.42878 4.92025C9.35163 5.30436 9.16301 5.65723 8.88649 5.93478L6.81902 8.00224C6.81902 8.00224 8.00966 16.0598 16.0026 17.0566Z" fill="white"/>
</svg>
