<svg width="49" height="49" viewBox="0 0 49 49" fill="none" xmlns="http://www.w3.org/2000/svg">
<path d="M3.29233 44.8415C-1.09744 40.4517 -1.09744 33.3344 3.29233 28.9447L28.8109 3.42612C33.2006 -0.963655 40.3179 -0.963656 44.7077 3.42612C49.0974 7.8159 49.0974 14.9331 44.7077 19.3229L19.1891 44.8415C14.7993 49.2312 7.68211 49.2312 3.29233 44.8415Z" fill="#36C811"/>
<path d="M44.7824 44.8415C49.1722 40.4517 49.1722 33.3344 44.7824 28.9447L19.2639 3.42612C14.8741 -0.963655 7.75688 -0.963656 3.3671 3.42612C-1.02268 7.8159 -1.02268 14.9331 3.3671 19.3229L28.8856 44.8415C33.2754 49.2312 40.3927 49.2312 44.7824 44.8415Z" fill="#36C811"/>
<path d="M10.1344 0.210466H36.1655V12.0428H10.1344V0.210466Z" fill="#36C811"/>
</svg>
