<svg width="48" height="48" viewBox="0 0 48 48" fill="none" xmlns="http://www.w3.org/2000/svg">
<path d="M4.11775 4.11778C9.60808 -1.37255 18.5097 -1.37255 24 4.11778L43.8822 24C49.3726 29.4903 49.3726 38.3919 43.8822 43.8823C38.3919 49.3726 29.4903 49.3726 24 43.8823L4.11775 24C-1.37258 18.5097 -1.37258 9.6081 4.11775 4.11778Z" fill="#36C811"/>
<path d="M4.11775 43.8822C-1.37258 38.3919 -1.37258 29.4903 4.11775 24L24 4.11778C29.4903 -1.37255 38.3919 -1.37261 43.8823 4.11772C49.3726 9.60805 49.3726 18.5097 43.8822 24L24 43.8823C18.5097 49.3726 9.60808 49.3725 4.11775 43.8822Z" fill="#36C811"/>
</svg>
