<svg width="210" height="210" viewBox="0 0 210 210" fill="none" xmlns="http://www.w3.org/2000/svg">
<path id="RM&#208;&#190;" d="M104.136 209.803C88.472 209.803 74.2584 206.902 61.4952 201.101C48.7321 195.106 37.7093 187.177 28.427 177.315C19.3381 167.259 12.2797 156.043 7.25177 143.667C2.41724 131.097 0 118.14 0 104.797C0 91.0668 2.61065 78.0136 7.83194 65.6372C13.0532 53.2608 20.305 42.2381 29.5873 32.569C39.063 22.7066 50.1824 14.9713 62.9455 9.36325C75.9021 3.7552 90.019 0.951172 105.296 0.951172C120.96 0.951172 135.174 3.94858 147.937 9.9434C160.7 15.7448 171.626 23.6735 180.715 33.7293C189.804 43.7851 196.765 55.0979 201.6 67.6677C206.628 80.0441 209.142 92.8073 209.142 105.957C209.142 119.494 206.531 132.45 201.31 144.827C196.282 157.203 189.03 168.323 179.554 178.185C170.272 187.854 159.249 195.589 146.486 201.391C133.723 206.999 119.606 209.803 104.136 209.803ZM57.4342 105.377C57.4342 112.339 58.4011 119.107 60.3349 125.682C62.2687 132.064 65.1695 137.865 69.0371 143.086C72.9047 148.114 77.7392 152.175 83.5407 155.269C89.5355 158.17 96.5939 159.62 104.716 159.62C112.838 159.62 119.896 158.073 125.891 154.979C131.886 151.885 136.721 147.728 140.395 142.506C144.262 137.092 147.066 131.193 148.807 124.812C150.741 118.237 151.708 111.565 151.708 104.797C151.708 97.8352 150.741 91.1635 148.807 84.7819C146.873 78.4003 143.972 72.6956 140.105 67.6677C136.237 62.4464 131.306 58.3854 125.311 55.4847C119.316 52.584 112.354 51.1336 104.426 51.1336C96.3039 51.1336 89.2455 52.6807 83.2506 55.7747C77.4492 58.8689 72.6147 63.0265 68.747 68.2478C64.8794 73.2757 61.9786 79.0772 60.0448 85.6521C58.3044 92.0337 57.4342 98.6087 57.4342 105.377Z" fill="#1D1E1D"/>
</svg>
