<svg width="159" height="206" viewBox="0 0 159 206" fill="none" xmlns="http://www.w3.org/2000/svg">
<g id="Property 1=Variant2" clip-path="url(#clip0_609_674)">
<g id="perf">
<path d="M0 205.951L0 0L88.762 0C98.8178 0 108.1 2.03051 116.609 6.09152C125.118 10.1525 132.466 15.6639 138.654 22.6256C144.843 29.3939 149.58 37.0325 152.868 45.5413C156.349 54.05 158.089 62.6555 158.089 71.3577C158.089 83.5407 155.188 95.0469 149.387 105.876C143.779 116.706 135.85 125.601 125.601 132.563C115.545 139.331 103.749 142.715 90.2123 142.715H56.564V205.951H0ZM56.564 93.4031H86.4414C88.762 93.4031 90.9859 92.7263 93.1131 91.3726C95.2402 90.0189 96.9807 87.6984 98.3343 84.4109C99.8814 81.1234 100.655 76.7723 100.655 71.3577C100.655 65.5562 99.7847 61.1085 98.0443 58.0144C96.4972 54.7269 94.4667 52.503 91.9528 51.3427C89.6322 49.989 87.3116 49.3122 84.991 49.3122H56.564V93.4031Z" fill="#1D1E1D"/>
<path d="M0 205.951L0 0L88.762 0C98.8178 0 108.1 2.03051 116.609 6.09152C125.118 10.1525 132.466 15.6639 138.654 22.6256C144.843 29.3939 149.58 37.0325 152.868 45.5413C156.349 54.05 158.089 62.6555 158.089 71.3577C158.089 83.5407 155.188 95.0469 149.387 105.876C143.779 116.706 135.85 125.601 125.601 132.563C115.545 139.331 103.749 142.715 90.2123 142.715H56.564V205.951H0ZM56.564 93.4031H86.4414C88.762 93.4031 90.9859 92.7263 93.1131 91.3726C95.2402 90.0189 96.9807 87.6984 98.3343 84.4109C99.8814 81.1234 100.655 76.7723 100.655 71.3577C100.655 65.5562 99.7847 61.1085 98.0443 58.0144C96.4972 54.7269 94.4667 52.503 91.9528 51.3427C89.6322 49.989 87.3116 49.3122 84.991 49.3122H56.564V93.4031Z" fill="#1D1E1D"/>
</g>
</g>
<defs>
<clipPath id="clip0_609_674">
<rect width="158.089" height="205.951" fill="white"/>
</clipPath>
</defs>
</svg>
