<svg width="178" height="207" viewBox="0 0 178 207" fill="none" xmlns="http://www.w3.org/2000/svg">
<g id="Property 1=Variant2" clip-path="url(#clip0_603_633)">
<path id="perf" d="M0 206.902L0 0.951172H94.5634C104.619 0.951172 113.902 2.98168 122.41 7.04269C130.919 11.1037 138.268 16.615 144.456 23.5768C150.644 30.3451 155.382 37.9837 158.669 46.4924C162.15 55.0012 163.891 63.6067 163.891 72.3088C163.891 80.2375 162.73 87.876 160.41 95.2245C158.089 102.573 154.705 109.341 150.257 115.53C145.809 121.524 140.491 126.746 134.303 131.193L177.814 206.902H115.739L79.4797 143.666H56.564V206.902H0ZM56.564 94.3543H92.2428C94.5634 94.3543 96.7873 93.4841 98.9145 91.7436C101.042 90.0032 102.782 87.4893 104.136 84.2018C105.683 80.9143 106.456 76.95 106.456 72.3088C106.456 67.4743 105.586 63.51 103.846 60.4159C102.299 57.1284 100.268 54.6145 97.7542 52.874C95.4336 51.1336 93.113 50.2634 90.7924 50.2634H56.564V94.3543Z" fill="#1D1E1D"/>
</g>
<defs>
<clipPath id="clip0_603_633">
<rect width="177.814" height="205.951" fill="white" transform="translate(0 0.951172)"/>
</clipPath>
</defs>
</svg>
