<svg width="52" height="52" viewBox="0 0 52 52" fill="none" xmlns="http://www.w3.org/2000/svg">
<circle cx="25.6842" cy="25.6842" r="25.0421" fill="white" stroke="#AEB2AD" stroke-width="1.28421"/>
<path fill-rule="evenodd" clip-rule="evenodd" d="M14.1478 18.0807C14.1268 18.1362 14.1188 21.597 14.1302 25.7713L14.151 33.3609L17.972 33.3839C22.6432 33.4121 23.3379 33.3424 24.6085 32.7188C25.3781 32.341 25.8042 31.9961 26.2181 31.416C27.0643 30.2301 27.2157 28.4055 26.5812 27.0399C26.1886 26.1951 25.5326 25.5914 24.582 25.2002L24.1533 25.0237L24.6312 24.7323C25.8866 23.9668 26.425 22.7158 26.1979 21.0915C25.9398 19.2451 24.6989 18.286 22.2757 18.0602C20.9866 17.94 14.1947 17.9572 14.1478 18.0807ZM30.0383 19.635V20.4827H33.0951H36.152V19.635V18.7872H33.0951H30.0383V19.635ZM21.8734 20.7536C22.828 21.059 23.2395 21.9586 22.9193 23.0406C22.7779 23.5191 22.4949 23.8327 21.9941 24.0666C21.6622 24.2215 21.4599 24.2378 19.5607 24.2636L17.4893 24.2916V22.4814C17.4893 21.4858 17.5165 20.643 17.5497 20.6087C17.5828 20.5743 18.4788 20.564 19.5406 20.5856C20.9975 20.6153 21.5699 20.6565 21.8734 20.7536ZM31.8081 21.8191C31.0684 21.978 29.9322 22.5702 29.3391 23.1057C27.8617 24.4398 27.1834 26.6496 27.5904 28.8031C28.0373 31.1673 29.547 32.7976 31.6874 33.2273C33.4342 33.5778 35.1463 33.3015 36.3933 32.4677C37.152 31.9604 37.8507 31.013 38.201 30.0165L38.3167 29.6872H37.0113H35.7059L35.5574 29.964C35.3762 30.3015 34.9097 30.6881 34.4003 30.9227C34.0866 31.0671 33.8727 31.0976 33.1756 31.0969C32.1625 31.0959 31.6744 30.9194 31.1721 30.3723C30.8141 29.9825 30.521 29.1799 30.521 28.5894V28.2354L34.523 28.2144L38.525 28.1935L38.5068 27.4016C38.4834 26.383 38.2572 25.4369 37.8232 24.5425C37.1605 23.1766 35.8356 22.1169 34.4121 21.8141C33.7251 21.6681 32.4997 21.6704 31.8081 21.8191ZM34.2498 24.1911C34.4761 24.301 34.7346 24.5135 34.8695 24.7005C35.1001 25.02 35.3989 25.7264 35.4839 26.1527L35.5285 26.3768H33.0248H30.521V26.1448C30.521 25.5686 30.9689 24.7585 31.4866 24.3984C31.9695 24.0625 32.4098 23.9534 33.1767 23.9793C33.696 23.9969 33.9555 24.0481 34.2498 24.1911ZM22.578 26.807C23.1585 27.0931 23.406 27.4155 23.5759 28.1065C23.8301 29.1404 23.4787 30.0819 22.6915 30.4758C22.1347 30.7543 21.556 30.8141 19.3998 30.8159L17.4893 30.8175L17.4893 28.6577L17.4892 26.4979L19.802 26.5383L22.1148 26.5787L22.578 26.807Z" fill="#AEB2AD"/>
</svg>
