<svg width="277" height="39" viewBox="0 0 277 39" fill="none" xmlns="http://www.w3.org/2000/svg">
<path d="M0 36.8475L0 1.24609H15.3437C17.082 1.24609 18.6866 1.59709 20.1574 2.2991C21.6283 3.00109 22.8986 3.95381 23.9683 5.15724C25.038 6.32724 25.857 7.64767 26.4253 9.11852C27.027 10.5894 27.3279 12.077 27.3279 13.5812C27.3279 15.6872 26.8264 17.6762 25.8236 19.5482C24.8541 21.4202 23.4836 22.958 21.7119 24.1614C19.9736 25.3314 17.9344 25.9164 15.5944 25.9164H9.77786V36.8475H0ZM9.77786 17.3921H14.9426C15.3437 17.3921 15.7281 17.2751 16.0959 17.0411C16.4636 16.8071 16.7644 16.406 16.9984 15.8377C17.2659 15.2694 17.3996 14.5172 17.3996 13.5812C17.3996 12.5784 17.2491 11.8095 16.9483 11.2747C16.6809 10.7064 16.3299 10.322 15.8953 10.1214C15.4941 9.88738 15.093 9.77038 14.6919 9.77038H9.77786V17.3921Z" fill="#1D1E1D"/>
<path d="M55.7493 28.3232V36.8475H30.377V1.24609H55.298V9.77038H40.1549V14.7847H53.0917V22.7072H40.1549V28.3232H55.7493Z" fill="#1D1E1D"/>
<path d="M60.2963 36.8475V1.24609H76.6428C78.3811 1.24609 79.9857 1.59709 81.4565 2.2991C82.9274 3.00109 84.1977 3.95381 85.2674 5.15724C86.3371 6.32724 87.1561 7.64767 87.7244 9.11852C88.3261 10.5894 88.627 12.077 88.627 13.5812C88.627 14.9518 88.4264 16.2722 88.0253 17.5425C87.6241 18.8128 87.0391 19.9828 86.2703 21.0525C85.5014 22.0888 84.5821 22.9914 83.5124 23.7602L91.0338 36.8475H80.3033L74.0354 25.9164H70.0741V36.8475H60.2963ZM70.0741 17.3921H76.2417C76.6428 17.3921 77.0273 17.2417 77.395 16.9408C77.7627 16.64 78.0635 16.2054 78.2975 15.6371C78.565 15.0688 78.6987 14.3835 78.6987 13.5812C78.6987 12.7455 78.5483 12.0602 78.2474 11.5254C77.98 10.9571 77.629 10.5225 77.1944 10.2217C76.7933 9.92081 76.3921 9.77038 75.991 9.77038H70.0741V17.3921Z" fill="#1D1E1D"/>
<path d="M94.1329 36.8475V1.24609H118.552V9.77038H103.911V15.6872H115.845V23.6098H103.911V36.8475H94.1329Z" fill="#1D1E1D"/>
<path d="M160.245 36.8479V1.24647H176.591C178.329 1.24647 179.934 1.59747 181.405 2.29947C182.876 3.00147 184.146 3.95418 185.216 5.15761C186.285 6.32761 187.104 7.64804 187.673 9.1189C188.274 10.5898 188.575 12.0773 188.575 13.5816C188.575 14.9522 188.375 16.2726 187.974 17.5429C187.572 18.8132 186.987 19.9832 186.219 21.0529C185.45 22.0892 184.53 22.9918 183.461 23.7606L190.982 36.8479H180.252L173.984 25.9168H170.022V36.8479H160.245ZM170.022 17.3925H176.19C176.591 17.3925 176.976 17.242 177.343 16.9412C177.711 16.6403 178.012 16.2058 178.246 15.6375C178.513 15.0692 178.647 14.3839 178.647 13.5816C178.647 12.7459 178.497 12.0606 178.196 11.5258C177.928 10.9575 177.577 10.5229 177.143 10.222C176.742 9.92118 176.34 9.77076 175.939 9.77076H170.022V17.3925Z" fill="#1D1E1D"/>
<path d="M227.923 36.8479V18.0945L218.498 31.282H213.283L203.859 18.0945V36.8479H194.081V1.24647H204.762L215.891 17.9942L227.07 1.24647H237.7V36.8479H227.923Z" fill="#1D1E1D"/>
<path d="M258.344 37.1488C255.636 37.1488 253.179 36.6473 250.973 35.6445C248.766 34.6082 246.861 33.2376 245.256 31.5328C243.685 29.7945 242.465 27.8556 241.596 25.7162C240.76 23.5433 240.342 21.3036 240.342 18.997C240.342 16.6236 240.794 14.3672 241.696 12.2278C242.599 10.0883 243.852 8.1829 245.457 6.51147C247.095 4.80661 249.017 3.46947 251.223 2.50004C253.463 1.53061 255.903 1.0459 258.544 1.0459C261.252 1.0459 263.709 1.56404 265.915 2.60033C268.122 3.60318 270.01 4.97376 271.581 6.71204C273.153 8.45033 274.356 10.4059 275.192 12.5788C276.061 14.7182 276.495 16.9245 276.495 19.1976C276.495 21.5376 276.044 23.7773 275.142 25.9168C274.272 28.0562 273.019 29.9783 271.381 31.6832C269.776 33.3546 267.871 34.6918 265.665 35.6946C263.458 36.664 261.018 37.1488 258.344 37.1488ZM250.271 19.0973C250.271 20.3008 250.438 21.4708 250.772 22.6073C251.106 23.7105 251.608 24.7133 252.276 25.6159C252.945 26.485 253.781 27.187 254.784 27.7219C255.82 28.2233 257.04 28.474 258.444 28.474C259.848 28.474 261.068 28.2066 262.104 27.6718C263.141 27.1369 263.976 26.4182 264.612 25.5156C265.28 24.5796 265.765 23.56 266.066 22.4569C266.4 21.3203 266.567 20.167 266.567 18.997C266.567 17.7936 266.4 16.6403 266.066 15.5372C265.731 14.434 265.23 13.4479 264.561 12.5788C263.893 11.6762 263.04 10.9742 262.004 10.4728C260.968 9.97133 259.764 9.72062 258.394 9.72062C256.99 9.72062 255.77 9.98804 254.733 10.5229C253.731 11.0578 252.895 11.7765 252.226 12.679C251.558 13.5482 251.056 14.551 250.722 15.6876C250.421 16.7908 250.271 17.9273 250.271 19.0973Z" fill="#1D1E1D"/>
<path d="M157.757 19.5C157.757 30.2696 149.027 39 138.257 39C127.488 39 118.757 30.2696 118.757 19.5C118.757 8.73045 127.488 0 138.257 0C149.027 0 157.757 8.73045 157.757 19.5Z" fill="#36C811"/>
</svg>
