<svg width="52" height="52" viewBox="0 0 52 52" fill="none" xmlns="http://www.w3.org/2000/svg">
<circle cx="26.0514" cy="25.6842" r="25.0421" fill="white" stroke="#AEB2AD" stroke-width="1.28421"/>
<path fill-rule="evenodd" clip-rule="evenodd" d="M31.04 16.4H20.96C18.4416 16.4 16.4 18.4416 16.4 20.96V31.04C16.4 33.5584 18.4416 35.6 20.96 35.6H31.04C33.5584 35.6 35.6 33.5584 35.6 31.04V20.96C35.6 18.4416 33.5584 16.4 31.04 16.4ZM20.96 14C17.1161 14 14 17.1161 14 20.96V31.04C14 34.8839 17.1161 38 20.96 38H31.04C34.8839 38 38 34.8839 38 31.04V20.96C38 17.1161 34.8839 14 31.04 14H20.96Z" fill="#AEB2AD"/>
<path fill-rule="evenodd" clip-rule="evenodd" d="M26 29.6C27.9882 29.6 29.6 27.9882 29.6 26C29.6 24.0118 27.9882 22.4 26 22.4C24.0118 22.4 22.4 24.0118 22.4 26C22.4 27.9882 24.0118 29.6 26 29.6ZM26 32C29.3137 32 32 29.3137 32 26C32 22.6863 29.3137 20 26 20C22.6863 20 20 22.6863 20 26C20 29.3137 22.6863 32 26 32Z" fill="#AEB2AD"/>
<path d="M33.6808 19.5211C33.6808 20.3163 33.0361 20.9611 32.2408 20.9611C31.4455 20.9611 30.8008 20.3163 30.8008 19.5211C30.8008 18.7258 31.4455 18.0811 32.2408 18.0811C33.0361 18.0811 33.6808 18.7258 33.6808 19.5211Z" fill="#AEB2AD"/>
</svg>
