<svg width="53" height="52" viewBox="0 0 53 52" fill="none" xmlns="http://www.w3.org/2000/svg">
<circle cx="26.4186" cy="25.6842" r="25.0421" fill="white" stroke="#AEB2AD" stroke-width="1.28421"/>
<path d="M36.7877 14.9233C26.8542 18.8126 20.4605 21.4566 10.9244 25.6282C9.86576 26.0913 9.91341 27.6005 11.014 27.9524C12.837 28.5352 14.4554 28.9373 16.6024 29.3547C17.2211 29.475 17.8623 29.3569 18.3978 29.0243C22.9875 26.1735 28.96 22.0236 30.6318 21.1891C32.7473 20.1332 25.4604 27.2455 22.4778 30.109C21.9064 30.6577 21.9605 31.5873 22.5937 32.0634C25.8599 34.5192 28.2723 36.1581 31.3866 38.0222C32.8884 38.9211 34.8145 38.0416 35.1511 36.324C36.5681 29.0943 37.4383 23.9413 38.524 16.2966C38.6619 15.3256 37.7009 14.5658 36.7877 14.9233Z" fill="#AEB2AD"/>
</svg>
