<svg width="52" height="52" viewBox="0 0 52 52" fill="none" xmlns="http://www.w3.org/2000/svg">
<circle cx="25.7858" cy="25.6842" r="25.0421" fill="white" stroke="#AEB2AD" stroke-width="1.28421"/>
<mask id="path-2-inside-1_1_1411" fill="white">
<path fill-rule="evenodd" clip-rule="evenodd" d="M25.4329 39.2966C32.951 39.2966 39.0456 33.202 39.0456 25.6839C39.0456 18.1659 32.951 12.0713 25.4329 12.0713C17.9149 12.0713 11.8203 18.1659 11.8203 25.6839C11.8203 28.2622 12.5371 30.6731 13.7823 32.7281L11.6167 39.9111L18.2978 37.279C20.3725 38.5584 22.8165 39.2966 25.4329 39.2966Z"/>
</mask>
<path fill-rule="evenodd" clip-rule="evenodd" d="M25.4329 39.2966C32.951 39.2966 39.0456 33.202 39.0456 25.6839C39.0456 18.1659 32.951 12.0713 25.4329 12.0713C17.9149 12.0713 11.8203 18.1659 11.8203 25.6839C11.8203 28.2622 12.5371 30.6731 13.7823 32.7281L11.6167 39.9111L18.2978 37.279C20.3725 38.5584 22.8165 39.2966 25.4329 39.2966Z" fill="#AEB2AD"/>
<path d="M13.7823 32.7281L15.2577 33.1729L15.4557 32.5162L15.1003 31.9295L13.7823 32.7281ZM11.6167 39.9111L10.1412 39.4662L9.22351 42.5102L12.1816 41.3449L11.6167 39.9111ZM18.2978 37.279L19.1067 35.9673L18.4503 35.5625L17.7329 35.8452L18.2978 37.279ZM37.5045 25.6839C37.5045 32.3509 32.0999 37.7555 25.4329 37.7555V40.8376C33.8021 40.8376 40.5866 34.0531 40.5866 25.6839H37.5045ZM25.4329 13.6123C32.0999 13.6123 37.5045 19.017 37.5045 25.6839H40.5866C40.5866 17.3148 33.8021 10.5302 25.4329 10.5302V13.6123ZM13.3614 25.6839C13.3614 19.017 18.766 13.6123 25.4329 13.6123V10.5302C17.0638 10.5302 10.2793 17.3148 10.2793 25.6839H13.3614ZM15.1003 31.9295C13.9969 30.1085 13.3614 27.9728 13.3614 25.6839H10.2793C10.2793 28.5516 11.0773 31.2376 12.4643 33.5267L15.1003 31.9295ZM13.0922 40.3559L15.2577 33.1729L12.3068 32.2833L10.1412 39.4662L13.0922 40.3559ZM17.7329 35.8452L11.0518 38.4773L12.1816 41.3449L18.8626 38.7127L17.7329 35.8452ZM25.4329 37.7555C23.1103 37.7555 20.9452 37.1011 19.1067 35.9673L17.4889 38.5906C19.7998 40.0157 22.5227 40.8376 25.4329 40.8376V37.7555Z" fill="#AEB2AD" mask="url(#path-2-inside-1_1_1411)"/>
<path d="M18.4957 23.45C17.8813 21.951 18.0698 20.8751 18.3073 20.0927C18.5447 19.3102 18.9654 18.8078 19.4828 18.3322C19.5891 18.2344 19.8457 18.2343 20.7074 18.2344C21.1851 18.2344 21.2774 18.9676 21.6007 19.8971C21.8606 20.6442 22.403 21.6576 22.403 21.8532C22.403 22.0488 21.1831 22.9145 20.8958 23.8093C20.755 24.2477 22.077 26.2561 23.7218 27.7331C25.4337 29.2704 27.3957 30.051 27.7725 29.8154C28.1493 29.5798 28.2898 29.4799 28.6203 29.0907C29.0407 28.5956 29.5095 27.831 29.5623 27.7215C29.6565 27.5259 32.5767 29.0907 32.8593 29.1885C33.1419 29.2863 32.8593 30.3622 32.6709 30.7534C32.4825 31.1446 31.9483 31.6202 31.1637 32.0249C29.6567 32.802 27.7153 32.142 25.4174 30.949C24.3829 30.4119 23.9102 30.2644 22.403 28.7772C20.7074 27.2324 19.11 24.949 18.4957 23.45Z" fill="white"/>
</svg>
