<svg width="353" height="84" viewBox="0 0 353 84" fill="none" xmlns="http://www.w3.org/2000/svg">
<path d="M2.68 56V27.68H9.92V38.68H20.2V27.68H27.44V56H20.2V45.32H9.92V56H2.68ZM38.2372 56.32C37.3572 56.32 36.5039 56.1867 35.6772 55.92C34.8505 55.6533 34.1039 55.2533 33.4372 54.72C32.7705 54.1867 32.2372 53.52 31.8372 52.72C31.4639 51.92 31.2772 50.9733 31.2772 49.88C31.2772 48.28 31.6105 47.0267 32.2772 46.12C32.9705 45.2133 33.8905 44.5467 35.0372 44.12C36.2105 43.6933 37.5305 43.4267 38.9972 43.32C40.4905 43.1867 42.0372 43.12 43.6372 43.12H44.5972C44.5972 42.6133 44.4772 42.16 44.2372 41.76C43.9972 41.36 43.6505 41.04 43.1972 40.8C42.7705 40.56 42.2372 40.44 41.5972 40.44C41.1439 40.44 40.7039 40.5067 40.2772 40.64C39.8505 40.7733 39.4905 40.96 39.1972 41.2C38.9305 41.4133 38.7705 41.68 38.7172 42H31.6772C31.8372 40.6933 32.2239 39.5733 32.8372 38.64C33.4505 37.68 34.2239 36.9067 35.1572 36.32C36.0905 35.7067 37.1305 35.2533 38.2772 34.96C39.4505 34.6667 40.6639 34.52 41.9172 34.52C43.9972 34.52 45.7305 34.9067 47.1172 35.68C48.5039 36.4267 49.5439 37.56 50.2372 39.08C50.9572 40.5733 51.3172 42.44 51.3172 44.68V56H44.7972V53.64C44.1839 54.3067 43.5439 54.84 42.8772 55.24C42.2105 55.64 41.4905 55.92 40.7172 56.08C39.9705 56.24 39.1439 56.32 38.2372 56.32ZM40.5572 50.92C41.2772 50.92 41.9439 50.7467 42.5572 50.4C43.1972 50.0533 43.7039 49.6267 44.0772 49.12C44.4772 48.5867 44.6772 48.0533 44.6772 47.52V47.48H40.7572C40.3572 47.48 39.9972 47.52 39.6772 47.6C39.3839 47.6533 39.1305 47.7467 38.9172 47.88C38.7039 48.0133 38.5439 48.1867 38.4372 48.4C38.3305 48.5867 38.2772 48.8267 38.2772 49.12C38.2772 49.4933 38.3705 49.8267 38.5572 50.12C38.7439 50.3867 39.0105 50.5867 39.3572 50.72C39.7039 50.8533 40.1039 50.92 40.5572 50.92ZM66.6456 56V34.92H82.2456V41.24H73.7256V56H66.6456ZM82.8581 56.04V49.48C83.5248 49.48 84.0581 49.3067 84.4581 48.96C84.8848 48.5867 85.2315 48.1333 85.4981 47.6C85.7915 46.96 85.9781 46.2667 86.0581 45.52C86.1381 44.7733 86.1915 44.0933 86.2181 43.48C86.2715 42.4133 86.3115 41.28 86.3381 40.08C86.3648 38.88 86.3781 37.8 86.3781 36.84C86.4048 35.8533 86.4181 35.2133 86.4181 34.92H104.058V56H97.0181V41.24H92.7381C92.7381 42.0667 92.7248 43.0267 92.6981 44.12C92.6715 45.2133 92.6048 46.32 92.4981 47.44C92.4181 48.5333 92.2715 49.5467 92.0581 50.48C91.8181 51.4933 91.5115 52.3467 91.1381 53.04C90.7648 53.7067 90.2715 54.2667 89.6581 54.72C88.9648 55.2 88.0715 55.5467 86.9781 55.76C85.8848 55.9467 84.5115 56.04 82.8581 56.04ZM114.097 56.32C113.217 56.32 112.363 56.1867 111.537 55.92C110.71 55.6533 109.963 55.2533 109.297 54.72C108.63 54.1867 108.097 53.52 107.697 52.72C107.323 51.92 107.137 50.9733 107.137 49.88C107.137 48.28 107.47 47.0267 108.137 46.12C108.83 45.2133 109.75 44.5467 110.897 44.12C112.07 43.6933 113.39 43.4267 114.857 43.32C116.35 43.1867 117.897 43.12 119.497 43.12H120.457C120.457 42.6133 120.337 42.16 120.097 41.76C119.857 41.36 119.51 41.04 119.057 40.8C118.63 40.56 118.097 40.44 117.457 40.44C117.003 40.44 116.563 40.5067 116.137 40.64C115.71 40.7733 115.35 40.96 115.057 41.2C114.79 41.4133 114.63 41.68 114.577 42H107.537C107.697 40.6933 108.083 39.5733 108.697 38.64C109.31 37.68 110.083 36.9067 111.017 36.32C111.95 35.7067 112.99 35.2533 114.137 34.96C115.31 34.6667 116.523 34.52 117.777 34.52C119.857 34.52 121.59 34.9067 122.977 35.68C124.363 36.4267 125.403 37.56 126.097 39.08C126.817 40.5733 127.177 42.44 127.177 44.68V56H120.657V53.64C120.043 54.3067 119.403 54.84 118.737 55.24C118.07 55.64 117.35 55.92 116.577 56.08C115.83 56.24 115.003 56.32 114.097 56.32ZM116.417 50.92C117.137 50.92 117.803 50.7467 118.417 50.4C119.057 50.0533 119.563 49.6267 119.937 49.12C120.337 48.5867 120.537 48.0533 120.537 47.52V47.48H116.617C116.217 47.48 115.857 47.52 115.537 47.6C115.243 47.6533 114.99 47.7467 114.777 47.88C114.563 48.0133 114.403 48.1867 114.297 48.4C114.19 48.5867 114.137 48.8267 114.137 49.12C114.137 49.4933 114.23 49.8267 114.417 50.12C114.603 50.3867 114.87 50.5867 115.217 50.72C115.563 50.8533 115.963 50.92 116.417 50.92ZM130.903 56V34.92H142.583C143.463 34.92 144.343 34.9867 145.223 35.12C146.13 35.2533 146.957 35.52 147.703 35.92C148.45 36.32 149.05 36.8933 149.503 37.64C149.983 38.3867 150.223 39.3867 150.223 40.64C150.223 41.2267 150.13 41.7867 149.943 42.32C149.757 42.8267 149.517 43.28 149.223 43.68C148.93 44.0533 148.623 44.3467 148.303 44.56C149.157 44.9867 149.797 45.5733 150.223 46.32C150.65 47.0667 150.863 48.0667 150.863 49.32C150.863 50.6267 150.583 51.7067 150.023 52.56C149.463 53.4133 148.743 54.0933 147.863 54.6C146.983 55.1067 146.063 55.4667 145.103 55.68C144.143 55.8933 143.263 56 142.463 56H130.903ZM137.983 49.88H142.183C142.583 49.88 142.917 49.8267 143.183 49.72C143.45 49.5867 143.65 49.4267 143.783 49.24C143.917 49.0267 143.983 48.7867 143.983 48.52C143.983 48.36 143.957 48.2133 143.903 48.08C143.85 47.92 143.757 47.7867 143.623 47.68C143.49 47.5467 143.317 47.4533 143.103 47.4C142.89 47.32 142.623 47.28 142.303 47.28H137.983V49.88ZM137.983 43.04H141.903C142.223 43.04 142.49 43.0133 142.703 42.96C142.917 42.88 143.077 42.7733 143.183 42.64C143.317 42.5067 143.41 42.3733 143.463 42.24C143.517 42.08 143.543 41.92 143.543 41.76C143.543 41.4933 143.477 41.28 143.343 41.12C143.237 40.96 143.05 40.84 142.783 40.76C142.543 40.68 142.223 40.64 141.823 40.64H137.983V43.04ZM153.989 56V34.92H161.069V42.28H167.269V34.92H174.349V56H167.269V48.64H161.069V56H153.989ZM179.291 66.04V58.68C180.304 58.68 181.158 58.64 181.851 58.56C182.544 58.48 183.118 58.32 183.571 58.08C184.051 57.8667 184.478 57.52 184.851 57.04L176.291 34.92H184.451L188.971 49.2L192.291 34.92H199.891L194.531 54.08C194.211 55.28 193.838 56.4133 193.411 57.48C192.984 58.5467 192.504 59.52 191.971 60.4C191.438 61.3067 190.811 62.1067 190.091 62.8C189.371 63.52 188.544 64.12 187.611 64.6C186.864 65 186.104 65.2933 185.331 65.48C184.584 65.6933 183.731 65.84 182.771 65.92C181.811 66 180.651 66.04 179.291 66.04ZM221.61 56.32C218.864 56.32 216.557 55.64 214.69 54.28C212.85 52.8933 211.69 51.0133 211.21 48.64H208.53V56H201.45V34.92H208.53V42.28H211.21C211.53 40.7333 212.157 39.3867 213.09 38.24C214.024 37.0667 215.21 36.1467 216.65 35.48C218.09 34.8133 219.717 34.48 221.53 34.48C223.557 34.48 225.37 34.9067 226.97 35.76C228.597 36.6133 229.877 37.8667 230.81 39.52C231.744 41.1467 232.21 43.1467 232.21 45.52C232.21 47.76 231.77 49.6933 230.89 51.32C230.037 52.92 228.81 54.16 227.21 55.04C225.637 55.8933 223.77 56.32 221.61 56.32ZM221.41 49.88C222.424 49.88 223.197 49.6533 223.73 49.2C224.29 48.72 224.677 48.1333 224.89 47.44C225.13 46.7467 225.25 46.0667 225.25 45.4C225.25 44.76 225.13 44.0933 224.89 43.4C224.677 42.7067 224.29 42.1333 223.73 41.68C223.197 41.2 222.424 40.96 221.41 40.96C220.45 40.96 219.677 41.1867 219.09 41.64C218.504 42.0667 218.077 42.6267 217.81 43.32C217.57 44.0133 217.45 44.72 217.45 45.44C217.45 46.1333 217.57 46.8267 217.81 47.52C218.077 48.2133 218.504 48.7867 219.09 49.24C219.677 49.6667 220.45 49.88 221.41 49.88Z" fill="#36C811"/>
<mask id="mask0_1_1253" style="mask-type:alpha" maskUnits="userSpaceOnUse" x="269" y="0" width="84" height="84">
<circle cx="311" cy="42" r="42" transform="rotate(90 311 42)" fill="#36C811"/>
</mask>
<g mask="url(#mask0_1_1253)">
<circle cx="311" cy="42" r="42" transform="rotate(90 311 42)" fill="#36C811"/>
<path d="M305.81 42.144V0.5L315.19 0.5V42.144V43.3511L316.043 42.4976L327.666 30.8763L334.293 37.5026L310.5 61.2929L286.707 37.5026L293.334 30.8763L304.957 42.4976L305.81 43.3511V42.144Z" fill="white" stroke="white"/>
</g>
</svg>
