<svg width="305" height="84" viewBox="0 0 305 84" fill="none" xmlns="http://www.w3.org/2000/svg">
<path d="M7.84 46.08C8 46.7467 8.26667 47.3067 8.64 47.76C9.04 48.1867 9.49333 48.5333 10 48.8C10.5333 49.04 11.12 49.2133 11.76 49.32C12.4267 49.4267 13.12 49.48 13.84 49.48C14.4533 49.48 15.04 49.44 15.6 49.36C16.1867 49.28 16.6933 49.1467 17.12 48.96C17.5733 48.7467 17.9333 48.4667 18.2 48.12C18.4667 47.7733 18.6 47.3333 18.6 46.8C18.6 46.3467 18.48 45.9733 18.24 45.68C18.0267 45.3867 17.7333 45.16 17.36 45C16.9867 44.8133 16.56 44.6933 16.08 44.64C15.6 44.56 15.12 44.52 14.64 44.52H10.2V38.64H13.88C14.9733 38.64 15.8667 38.4667 16.56 38.12C17.2533 37.7467 17.6 37.12 17.6 36.24C17.5733 35.8133 17.4267 35.4667 17.16 35.2C16.92 34.9067 16.6 34.68 16.2 34.52C15.8267 34.3333 15.4 34.2133 14.92 34.16C14.44 34.08 13.96 34.04 13.48 34.04C12.04 34.04 10.88 34.28 10 34.76C9.14667 35.24 8.65333 36 8.52 37.04H1.6C1.68 35.2533 2.06667 33.7467 2.76 32.52C3.45333 31.2667 4.34667 30.2667 5.44 29.52C6.56 28.7467 7.82667 28.1867 9.24 27.84C10.68 27.4933 12.1733 27.32 13.72 27.32C14.92 27.32 16.0933 27.4133 17.24 27.6C18.3867 27.76 19.52 28.1333 20.64 28.72C21.7867 29.3333 22.76 30.1867 23.56 31.28C24.3867 32.3467 24.8 33.64 24.8 35.16C24.8 36.44 24.5733 37.4933 24.12 38.32C23.6933 39.12 23.0533 39.8667 22.2 40.56C23.6133 41.1733 24.6 42.12 25.16 43.4C25.72 44.6533 25.9467 46.0133 25.84 47.48C25.84 48.3867 25.6933 49.2267 25.4 50C25.1333 50.7467 24.7733 51.4267 24.32 52.04C23.8933 52.6533 23.4 53.2 22.84 53.68C22.3067 54.1333 21.7467 54.52 21.16 54.84C19.8267 55.48 18.56 55.88 17.36 56.04C16.1867 56.2267 14.96 56.32 13.68 56.32C12.0267 56.32 10.4667 56.1333 9 55.76C7.53333 55.3867 6.22667 54.8 5.08 54C3.93333 53.1733 3 52.12 2.28 50.84C1.56 49.5333 1.12 47.9467 0.96 46.08H7.84ZM41.7113 53.64C41.1246 54.28 40.5246 54.7867 39.9113 55.16C39.3246 55.5067 38.7113 55.7733 38.0713 55.96C37.4579 56.1467 36.8846 56.2533 36.3513 56.28C35.8179 56.3067 35.4179 56.32 35.1513 56.32C34.2713 56.32 33.4046 56.1867 32.5513 55.92C31.7246 55.6533 30.9913 55.24 30.3513 54.68C29.7113 54.12 29.1913 53.4267 28.7913 52.6C28.3913 51.7467 28.1913 50.72 28.1913 49.52C28.1913 48.2933 28.4979 47.2267 29.1113 46.32C29.7513 45.4133 30.5113 44.7333 31.3913 44.28C32.0313 43.96 32.7113 43.72 33.4313 43.56C34.1779 43.3733 34.9246 43.2533 35.6713 43.2C36.4446 43.1467 37.2446 43.12 38.0713 43.12H41.5113C41.4846 42.3733 41.2046 41.7467 40.6713 41.24C40.1646 40.7067 39.4446 40.44 38.5113 40.44C37.8179 40.44 37.1779 40.5867 36.5913 40.88C36.0313 41.1733 35.7113 41.5467 35.6313 42H28.5913C28.7513 40.6933 29.1379 39.5733 29.7513 38.64C30.3646 37.68 31.1246 36.9067 32.0312 36.32C32.9379 35.7067 33.9379 35.2533 35.0313 34.96C36.1246 34.6667 37.2579 34.52 38.4313 34.52C39.8446 34.52 41.0713 34.6667 42.1113 34.96C43.1779 35.2533 44.0979 35.6933 44.8713 36.28C47.1113 37.9067 48.2313 40.7067 48.2313 44.68V56H41.7113V53.64ZM37.6713 47.48C36.8979 47.48 36.2846 47.6133 35.8313 47.88C35.4046 48.1467 35.1913 48.5867 35.1913 49.2C35.1913 49.7333 35.3913 50.16 35.7913 50.48C36.2179 50.7733 36.7779 50.92 37.4713 50.92C38.0313 50.92 38.5513 50.8267 39.0313 50.64C39.5379 50.4533 39.9646 50.2 40.3113 49.88C40.6846 49.5333 40.9779 49.16 41.1913 48.76C41.4313 48.36 41.5646 47.9333 41.5913 47.48H37.6713ZM59.0381 48.72V56H51.9581V34.92H59.0381V42.36H61.9181L66.3181 34.92H74.2781L67.9581 44.76L73.9581 56H65.8781L62.1981 48.72H59.0381ZM88.5863 53.64C87.9996 54.28 87.3996 54.7867 86.7863 55.16C86.1996 55.5067 85.5863 55.7733 84.9463 55.96C84.3329 56.1467 83.7596 56.2533 83.2263 56.28C82.6929 56.3067 82.2929 56.32 82.0263 56.32C81.1463 56.32 80.2796 56.1867 79.4263 55.92C78.5996 55.6533 77.8663 55.24 77.2263 54.68C76.5863 54.12 76.0663 53.4267 75.6663 52.6C75.2663 51.7467 75.0663 50.72 75.0663 49.52C75.0663 48.2933 75.3729 47.2267 75.9863 46.32C76.6263 45.4133 77.3863 44.7333 78.2663 44.28C78.9063 43.96 79.5863 43.72 80.3063 43.56C81.0529 43.3733 81.7996 43.2533 82.5463 43.2C83.3196 43.1467 84.1196 43.12 84.9463 43.12H88.3863C88.3596 42.3733 88.0796 41.7467 87.5463 41.24C87.0396 40.7067 86.3196 40.44 85.3863 40.44C84.6929 40.44 84.0529 40.5867 83.4663 40.88C82.9063 41.1733 82.5863 41.5467 82.5063 42H75.4663C75.6263 40.6933 76.0129 39.5733 76.6263 38.64C77.2396 37.68 77.9996 36.9067 78.9062 36.32C79.8129 35.7067 80.8129 35.2533 81.9063 34.96C82.9996 34.6667 84.1329 34.52 85.3063 34.52C86.7196 34.52 87.9463 34.6667 88.9863 34.96C90.0529 35.2533 90.9729 35.6933 91.7463 36.28C93.9863 37.9067 95.1063 40.7067 95.1063 44.68V56H88.5863V53.64ZM84.5463 47.48C83.7729 47.48 83.1596 47.6133 82.7063 47.88C82.2796 48.1467 82.0663 48.5867 82.0663 49.2C82.0663 49.7333 82.2663 50.16 82.6663 50.48C83.0929 50.7733 83.6529 50.92 84.3463 50.92C84.9063 50.92 85.4263 50.8267 85.9063 50.64C86.4129 50.4533 86.8396 50.2 87.1863 49.88C87.5596 49.5333 87.8529 49.16 88.0663 48.76C88.3063 48.36 88.4396 47.9333 88.4663 47.48H84.5463ZM117.153 40.64C117.206 41.36 117.073 42.08 116.753 42.8C116.46 43.52 116.02 44.0667 115.433 44.44C116.233 44.92 116.82 45.5867 117.193 46.44C117.566 47.2667 117.753 48.1467 117.753 49.08C117.7 50.4133 117.393 51.52 116.833 52.4C116.273 53.28 115.58 54.0133 114.753 54.6C113.793 55.2667 112.713 55.72 111.513 55.96C110.313 56.2 109.1 56.32 107.873 56.32C106.753 56.32 105.62 56.1867 104.473 55.92C103.326 55.6267 102.273 55.1733 101.313 54.56C100.353 53.92 99.5398 53.1067 98.8731 52.12C98.2065 51.1067 97.7931 49.88 97.6331 48.44H104.513C104.566 49.1067 104.953 49.6 105.673 49.92C106.393 50.24 107.22 50.4 108.153 50.4C108.9 50.4 109.553 50.28 110.113 50.04C110.7 49.8 110.993 49.4133 110.993 48.88C110.993 48.5333 110.873 48.2533 110.633 48.04C110.393 47.8267 109.966 47.72 109.353 47.72H105.753V42.88H108.473C109.406 42.88 109.98 42.7467 110.193 42.48C110.433 42.2133 110.553 41.9333 110.553 41.64C110.553 41.1867 110.3 40.8533 109.793 40.64C109.286 40.4267 108.646 40.32 107.873 40.32C107.073 40.32 106.326 40.48 105.633 40.8C104.94 41.12 104.526 41.6 104.393 42.24H97.7531C97.9931 40.72 98.4465 39.4667 99.1131 38.48C99.8065 37.4667 100.62 36.6667 101.553 36.08C102.486 35.4933 103.526 35.08 104.673 34.84C105.82 34.6 107.006 34.48 108.233 34.48C109.166 34.48 110.073 34.5467 110.953 34.68C111.86 34.7867 112.74 35.04 113.593 35.44C114.5 35.8933 115.3 36.5467 115.993 37.4C116.713 38.2267 117.1 39.3067 117.153 40.64ZM133.352 53.64C132.765 54.28 132.165 54.7867 131.552 55.16C130.965 55.5067 130.352 55.7733 129.712 55.96C129.099 56.1467 128.525 56.2533 127.992 56.28C127.459 56.3067 127.059 56.32 126.792 56.32C125.912 56.32 125.045 56.1867 124.192 55.92C123.365 55.6533 122.632 55.24 121.992 54.68C121.352 54.12 120.832 53.4267 120.432 52.6C120.032 51.7467 119.832 50.72 119.832 49.52C119.832 48.2933 120.139 47.2267 120.752 46.32C121.392 45.4133 122.152 44.7333 123.032 44.28C123.672 43.96 124.352 43.72 125.072 43.56C125.819 43.3733 126.565 43.2533 127.312 43.2C128.085 43.1467 128.885 43.12 129.712 43.12H133.152C133.125 42.3733 132.845 41.7467 132.312 41.24C131.805 40.7067 131.085 40.44 130.152 40.44C129.459 40.44 128.819 40.5867 128.232 40.88C127.672 41.1733 127.352 41.5467 127.272 42H120.232C120.392 40.6933 120.779 39.5733 121.392 38.64C122.005 37.68 122.765 36.9067 123.672 36.32C124.579 35.7067 125.579 35.2533 126.672 34.96C127.765 34.6667 128.899 34.52 130.072 34.52C131.485 34.52 132.712 34.6667 133.752 34.96C134.819 35.2533 135.739 35.6933 136.512 36.28C138.752 37.9067 139.872 40.7067 139.872 44.68V56H133.352V53.64ZM129.312 47.48C128.539 47.48 127.925 47.6133 127.472 47.88C127.045 48.1467 126.832 48.5867 126.832 49.2C126.832 49.7333 127.032 50.16 127.432 50.48C127.859 50.7733 128.419 50.92 129.112 50.92C129.672 50.92 130.192 50.8267 130.672 50.64C131.179 50.4533 131.605 50.2 131.952 49.88C132.325 49.5333 132.619 49.16 132.832 48.76C133.072 48.36 133.205 47.9333 133.232 47.48H129.312ZM142.039 41.24V34.92H162.359V41.24H155.679V56H148.639V41.24H142.039ZM171.655 34.92V40.84H175.695C176.922 40.84 178.055 40.96 179.095 41.2C180.135 41.44 181.042 41.8533 181.815 42.44C182.615 43 183.229 43.76 183.655 44.72C184.109 45.6533 184.335 46.8 184.335 48.16C184.255 49.6533 183.935 50.8933 183.375 51.88C182.815 52.8667 182.082 53.6667 181.175 54.28C180.295 54.8933 179.282 55.3333 178.135 55.6C177.015 55.8667 175.855 56 174.655 56H164.575V34.92H171.655ZM174.975 49.8C176.575 49.8 177.375 49.2667 177.375 48.2C177.375 47.2133 176.629 46.72 175.135 46.72H171.655V49.8H174.975Z" fill="#36C811"/>
<mask id="mask0_1_497" style="mask-type:alpha" maskUnits="userSpaceOnUse" x="221" y="0" width="84" height="84">
<circle cx="263" cy="42" r="42" transform="rotate(90 263 42)" fill="#36C811"/>
</mask>
<g mask="url(#mask0_1_497)">
<circle cx="263" cy="42" r="42" transform="rotate(90 263 42)" fill="#36C811"/>
<path d="M257.81 42.144V0.5L267.19 0.5V42.144V43.3511L268.043 42.4976L279.666 30.8763L286.293 37.5026L262.5 61.2929L238.707 37.5026L245.334 30.8763L256.957 42.4976L257.81 43.3511V42.144Z" fill="white" stroke="white"/>
</g>
</svg>
