<svg width="80" height="80" viewBox="0 0 80 80" fill="none" xmlns="http://www.w3.org/2000/svg">
<path d="M60.5 33H35V60H60.5V33Z" fill="#36C811"/>
<path d="M40 60C40 48.9543 48.9543 40 60 40C71.0457 40 80 48.9543 80 60C80 71.0457 71.0457 80 60 80C48.9543 80 40 71.0457 40 60Z" fill="#36C811"/>
<path d="M80 40C80 32.0888 77.6541 24.3552 73.2588 17.7772C68.8635 11.1992 62.6164 6.07234 55.3074 3.04484C47.9983 0.0173314 39.9556 -0.774802 32.1964 0.768607C24.4372 2.31202 17.3098 6.12165 11.7157 11.7157C6.12165 17.3098 2.31202 24.4372 0.768607 32.1964C-0.774802 39.9556 0.0173314 47.9983 3.04484 55.3074C6.07234 62.6164 11.1992 68.8635 17.7772 73.2588C24.3552 77.6541 32.0888 80 40 80V40H80Z" fill="#36C811"/>
</svg>
