<svg width="84" height="84" viewBox="0 0 84 84" fill="none" xmlns="http://www.w3.org/2000/svg">
<ellipse cx="42" cy="42.0008" rx="42" ry="42.0008" fill="#36C811"/>
<path fill-rule="evenodd" clip-rule="evenodd" d="M41.4162 64.2611C53.7101 64.2611 63.6762 54.2947 63.6762 42.0007C63.6762 29.7066 53.7101 19.7402 41.4162 19.7402C29.1224 19.7402 19.1562 29.7066 19.1562 42.0007C19.1562 46.2192 20.3297 50.1636 22.3679 53.5254L18.8284 65.2657L29.7502 60.9628C33.1425 63.0544 37.1385 64.2611 41.4162 64.2611Z" fill="white"/>
<path d="M30.0827 38.3473C29.0781 35.896 29.3862 34.1367 29.7745 32.8572C30.1629 31.5777 30.8508 30.7561 31.6968 29.9783C31.8707 29.8184 32.2902 29.8182 33.6993 29.8184C34.4805 29.8184 34.6315 31.0174 35.1601 32.5373C35.5851 33.7591 36.4721 35.4162 36.4721 35.7361C36.4721 36.056 34.4772 37.4717 34.0074 38.9348C33.7772 39.6518 35.939 42.9362 38.6287 45.3515C41.428 47.8652 44.6363 49.1418 45.2525 48.7565C45.8687 48.3712 46.0985 48.2079 46.6389 47.5715C47.3263 46.7619 48.093 45.5115 48.1793 45.3324C48.3333 45.0125 53.1086 47.5715 53.5707 47.7315C54.0329 47.8914 53.5707 49.6507 53.2627 50.2905C52.9546 50.9302 52.0811 51.708 50.798 52.3697C48.3337 53.6405 45.159 52.5612 41.4014 50.6103C39.7097 49.732 38.9368 49.4908 36.4721 47.0588C33.6993 44.5327 31.0873 40.7986 30.0827 38.3473Z" fill="#36C811"/>
</svg>
