<svg width="84" height="84" viewBox="0 0 84 84" fill="none" xmlns="http://www.w3.org/2000/svg">
<rect width="84" height="84" rx="42" fill="#36C811"/>
<path d="M57.6814 24.9228C42.8785 30.7106 33.729 34.497 19.44 40.7606C18.3818 41.2245 18.4302 42.7351 19.5248 43.1051C22.721 44.1855 25.2771 44.8413 28.9582 45.5447C29.5774 45.663 30.2168 45.5459 30.7531 45.2146C37.2271 41.2158 45.8515 35.215 48.2356 34.025C51.3108 32.4901 40.2119 43.2687 36.3677 46.9484C35.7954 47.4962 35.8512 48.423 36.4833 48.9006C41.7391 52.8715 45.3786 55.3237 50.5209 58.3467C52.0298 59.2337 53.9554 58.3543 54.2948 56.6372C56.5013 45.4743 57.771 37.9921 59.4209 26.2969C59.5579 25.3257 58.5947 24.5657 57.6814 24.9228Z" fill="white"/>
</svg>
