<svg width="84" height="84" viewBox="0 0 84 84" fill="none" xmlns="http://www.w3.org/2000/svg">
<rect width="84" height="84" rx="42" fill="#36C811"/>
<path d="M49.0046 50.8491L52.6227 47.2311C53.11 46.7498 53.7265 46.4203 54.3975 46.2827C55.0684 46.1451 55.7648 46.2052 56.4023 46.4558L60.8118 48.2163C61.4559 48.4778 62.0083 48.9241 62.3992 49.499C62.7901 50.0738 63.0021 50.7516 63.0085 51.4467V59.5228C63.0047 59.9957 62.9053 60.4629 62.7162 60.8964C62.5271 61.3299 62.2523 61.7206 61.9082 62.045C61.5642 62.3695 61.158 62.621 60.7142 62.7843C60.2704 62.9476 59.7981 63.0195 59.3258 62.9955C28.4268 61.0734 22.1921 34.907 21.013 24.8927C20.9583 24.4009 21.0083 23.9032 21.1598 23.4321C21.3112 22.961 21.5607 22.5274 21.8918 22.1597C22.2229 21.792 22.6281 21.4985 23.0808 21.2987C23.5334 21.0988 24.0232 20.997 24.518 21.0001H32.3195C33.0157 21.0021 33.6953 21.2124 34.271 21.6039C34.8467 21.9953 35.2921 22.5501 35.5499 23.1967L37.3105 27.6063C37.5693 28.2412 37.6354 28.9382 37.5004 29.6104C37.3653 30.2826 37.0353 30.9002 36.5513 31.3859L32.9333 35.0039C32.9333 35.0039 35.0169 49.1047 49.0046 50.8491Z" fill="white"/>
</svg>
