<svg width="82" height="82" viewBox="0 0 82 82" fill="none" xmlns="http://www.w3.org/2000/svg">
<path d="M5.56497 75.5685C-1.85499 68.1486 -1.85499 56.1184 5.56497 48.6985L48.6985 5.56497C56.1184 -1.85499 68.1486 -1.85499 75.5685 5.56497C82.9885 12.9849 82.9885 25.0151 75.5685 32.435L32.435 75.5685C25.0151 82.9885 12.9849 82.9885 5.56497 75.5685Z" fill="#36C811"/>
<path d="M75.6949 75.5685C83.1149 68.1486 83.1149 56.1184 75.6949 48.6985L32.5614 5.56497C25.1414 -1.85499 13.1113 -1.85499 5.69134 5.56497C-1.72862 12.9849 -1.72862 25.0151 5.69134 32.435L48.8249 75.5685C56.2448 82.9885 68.275 82.9885 75.6949 75.5685Z" fill="#36C811"/>
<path d="M17.1299 0.129605H61.1299V20.1296H17.1299V0.129605Z" fill="#36C811"/>
</svg>
