<svg width="80" height="80" viewBox="0 0 80 80" fill="none" xmlns="http://www.w3.org/2000/svg">
<path d="M6.86291 6.86296C16.0135 -2.28759 30.8494 -2.28759 40 6.86296L73.1371 40C82.2876 49.1506 82.2876 63.9865 73.1371 73.1371C63.9865 82.2876 49.1506 82.2876 40 73.1371L6.86291 40C-2.28764 30.8495 -2.28764 16.0135 6.86291 6.86296Z" fill="#36C811"/>
<path d="M6.86292 73.137C-2.28763 63.9864 -2.28764 49.1506 6.86291 40L40 6.86296C49.1506 -2.28759 63.9865 -2.28769 73.1371 6.86286C82.2876 16.0134 82.2876 30.8495 73.1371 40L40 73.1371C30.8494 82.2876 16.0135 82.2875 6.86292 73.137Z" fill="#36C811"/>
</svg>
