<svg width="24" height="15" viewBox="0 0 24 15" fill="none" xmlns="http://www.w3.org/2000/svg">
<path fill-rule="evenodd" clip-rule="evenodd" d="M0.0224633 0.0994535C0.00173295 0.153523 -0.00610012 3.52204 0.00513543 7.58514L0.0255493 14.9726L3.78392 14.995C8.37855 15.0224 9.06186 14.9546 10.3116 14.3476C11.0687 13.9798 11.4877 13.6442 11.8949 13.0795C12.7272 11.9252 12.8761 10.1492 12.252 8.82002C11.8658 7.99774 11.2206 7.41012 10.2856 7.02928L9.86386 6.85748L10.334 6.57385C11.5688 5.82874 12.0984 4.61106 11.875 3.03007C11.6211 1.2328 10.4006 0.299308 8.01703 0.0794916C6.74908 -0.0374502 0.0685924 -0.020789 0.0224633 0.0994535ZM15.6525 1.61231V2.4375H18.6592H21.6659V1.61231V0.787115H18.6592H15.6525V1.61231ZM7.62142 2.70117C8.56037 2.9984 8.96509 3.87405 8.65018 4.92723C8.511 5.39295 8.23265 5.69828 7.7401 5.92587C7.41364 6.07669 7.21464 6.09256 5.34661 6.11763L3.30918 6.1449V4.38292C3.30918 3.41383 3.33592 2.5935 3.36852 2.5601C3.40112 2.52662 4.2824 2.51656 5.32683 2.53763C6.75984 2.56655 7.32288 2.60663 7.62142 2.70117ZM17.3932 3.73824C16.6656 3.89299 15.548 4.46937 14.9647 4.99057C13.5115 6.28912 12.8444 8.44012 13.2447 10.5362C13.6842 12.8375 15.1692 14.4243 17.2745 14.8425C18.9927 15.1838 20.6767 14.9148 21.9032 14.1032C22.6495 13.6094 23.3368 12.6873 23.6813 11.7173L23.7951 11.3968H22.5111H21.2271L21.0811 11.6662C20.9029 11.9947 20.4439 12.371 19.9429 12.5993C19.6344 12.7399 19.424 12.7696 18.7383 12.7689C17.7418 12.7679 17.2618 12.5961 16.7676 12.0637C16.4155 11.6842 16.1272 10.903 16.1272 10.3282V9.98363L20.0636 9.96319L24 9.94284L23.9821 9.17203C23.9591 8.18062 23.7366 7.2597 23.3097 6.38908C22.6579 5.05958 21.3547 4.02816 19.9545 3.73345C19.2788 3.59128 18.0735 3.59356 17.3932 3.73824ZM19.7949 6.04706C20.0175 6.1541 20.2717 6.36087 20.4044 6.54288C20.6312 6.85386 20.9252 7.54145 21.0087 7.9564L21.0526 8.17457H18.5899H16.1272V7.9487C16.1272 7.38788 16.5678 6.59939 17.077 6.24888C17.552 5.92194 17.985 5.81569 18.7394 5.84092C19.2502 5.85805 19.5054 5.90788 19.7949 6.04706ZM8.31438 8.59329C8.88541 8.87174 9.12888 9.18555 9.29599 9.8582C9.54602 10.8645 9.20033 11.781 8.42602 12.1643C7.87841 12.4355 7.30919 12.4936 5.18836 12.4954L3.30918 12.497L3.3091 10.3947L3.30902 8.29245L5.5839 8.33175L7.85879 8.37104L8.31438 8.59329Z" fill="#36C811"/>
</svg>
