<svg width="24" height="20" viewBox="0 0 24 20" fill="none" xmlns="http://www.w3.org/2000/svg">
<path d="M22.4105 0.620891C14.6755 3.6494 9.69676 5.70826 2.27108 8.95664C1.44676 9.31724 1.48387 10.4925 2.34087 10.7665C3.76045 11.2203 5.02067 11.5334 6.69249 11.8584C7.17432 11.9521 7.67361 11.8602 8.09058 11.6012C11.6645 9.3813 16.3152 6.14975 17.617 5.5C19.2644 4.67779 13.5902 10.2161 11.2677 12.4458C10.8227 12.873 10.8648 13.5969 11.3579 13.9677C13.9012 15.88 15.7797 17.1562 18.2048 18.6077C19.3743 19.3077 20.874 18.6228 21.1362 17.2853C22.2395 11.6557 22.9172 7.64311 23.7626 1.69023C23.87 0.934128 23.1217 0.342465 22.4105 0.620891Z" fill="#36C811"/>
</svg>
