<svg width="22" height="22" viewBox="0 0 22 22" fill="none" xmlns="http://www.w3.org/2000/svg">
<mask id="path-1-inside-1_1_1356" fill="white">
<path fill-rule="evenodd" clip-rule="evenodd" d="M21.3591 10.6C21.3591 16.4542 16.6133 21.2 10.7591 21.2C8.72169 21.2 6.81854 20.6252 5.20297 19.6289L0 21.6787L1.68653 16.0847C0.717127 14.4846 0.159094 12.6075 0.159094 10.6C0.159094 4.74578 4.90488 0 10.7591 0C16.6133 0 21.3591 4.74578 21.3591 10.6ZM5.17538 6.44704C4.99044 7.05631 4.84373 7.89407 5.32211 9.06134C5.8005 10.2286 7.04433 12.0067 8.36469 13.2096C9.4051 14.2362 9.81246 14.443 10.4527 14.7681C10.5347 14.8097 10.6205 14.8533 10.712 14.9008C12.5013 15.8297 14.0131 16.3436 15.1865 15.7385C15.7975 15.4234 16.2135 15.0531 16.3602 14.7484C16.5069 14.4438 16.727 13.606 16.5069 13.5299C16.4414 13.5072 16.1937 13.3832 15.8762 13.2243C15.1276 12.8495 13.991 12.2805 13.9395 12.3875C13.8985 12.4728 13.5334 13.0682 13.206 13.4537C12.9487 13.7568 12.8392 13.8345 12.5458 14.018C12.2524 14.2015 10.7246 13.5936 9.39164 12.3966C8.11086 11.2465 7.08141 9.68251 7.19103 9.3411C7.33384 8.89633 7.77261 8.46076 8.07127 8.16427C8.24046 7.99631 8.36469 7.87299 8.36469 7.81791C8.36469 7.73946 8.25265 7.49211 8.11633 7.19117C7.98796 6.90778 7.83807 6.57688 7.73993 6.29472C7.685 6.13679 7.63863 5.98613 7.59584 5.8471C7.44254 5.34899 7.33514 5.00003 7.04433 5C6.37332 4.99995 6.17357 5.00001 6.09074 5.07616C5.68788 5.44653 5.36031 5.83776 5.17538 6.44704Z"/>
</mask>
<path fill-rule="evenodd" clip-rule="evenodd" d="M21.3591 10.6C21.3591 16.4542 16.6133 21.2 10.7591 21.2C8.72169 21.2 6.81854 20.6252 5.20297 19.6289L0 21.6787L1.68653 16.0847C0.717127 14.4846 0.159094 12.6075 0.159094 10.6C0.159094 4.74578 4.90488 0 10.7591 0C16.6133 0 21.3591 4.74578 21.3591 10.6ZM5.17538 6.44704C4.99044 7.05631 4.84373 7.89407 5.32211 9.06134C5.8005 10.2286 7.04433 12.0067 8.36469 13.2096C9.4051 14.2362 9.81246 14.443 10.4527 14.7681C10.5347 14.8097 10.6205 14.8533 10.712 14.9008C12.5013 15.8297 14.0131 16.3436 15.1865 15.7385C15.7975 15.4234 16.2135 15.0531 16.3602 14.7484C16.5069 14.4438 16.727 13.606 16.5069 13.5299C16.4414 13.5072 16.1937 13.3832 15.8762 13.2243C15.1276 12.8495 13.991 12.2805 13.9395 12.3875C13.8985 12.4728 13.5334 13.0682 13.206 13.4537C12.9487 13.7568 12.8392 13.8345 12.5458 14.018C12.2524 14.2015 10.7246 13.5936 9.39164 12.3966C8.11086 11.2465 7.08141 9.68251 7.19103 9.3411C7.33384 8.89633 7.77261 8.46076 8.07127 8.16427C8.24046 7.99631 8.36469 7.87299 8.36469 7.81791C8.36469 7.73946 8.25265 7.49211 8.11633 7.19117C7.98796 6.90778 7.83807 6.57688 7.73993 6.29472C7.685 6.13679 7.63863 5.98613 7.59584 5.8471C7.44254 5.34899 7.33514 5.00003 7.04433 5C6.37332 4.99995 6.17357 5.00001 6.09074 5.07616C5.68788 5.44653 5.36031 5.83776 5.17538 6.44704Z" fill="#36C811"/>
<path d="M5.20297 19.6289L5.83285 18.6075L5.32177 18.2923L4.76312 18.5124L5.20297 19.6289ZM0 21.6787L-1.14892 21.3323L-1.86355 23.7026L0.439856 22.7952L0 21.6787ZM1.68653 16.0847L2.83545 16.4311L2.98962 15.9197L2.71287 15.4629L1.68653 16.0847ZM5.32211 9.06134L6.43248 8.60627L5.32211 9.06134ZM8.36469 13.2096L9.20754 12.3554L9.19051 12.3386L9.17283 12.3225L8.36469 13.2096ZM10.4527 14.7681L9.90947 15.8381L9.90947 15.8381L10.4527 14.7681ZM10.712 14.9008L11.2649 13.8357L11.2649 13.8357L10.712 14.9008ZM15.1865 15.7385L14.6365 14.672L15.1865 15.7385ZM16.3602 14.7484L15.279 14.2278L15.279 14.2278L16.3602 14.7484ZM16.5069 13.5299L16.1144 14.6639L16.1144 14.6639L16.5069 13.5299ZM15.8762 13.2243L16.4134 12.1512H16.4134L15.8762 13.2243ZM13.9395 12.3875L12.8584 11.8668L12.8584 11.8668L13.9395 12.3875ZM13.206 13.4537L14.1207 14.2304H14.1207L13.206 13.4537ZM12.5458 14.018L11.9096 13.0005V13.0005L12.5458 14.018ZM9.39164 12.3966L10.1934 11.5037V11.5037L9.39164 12.3966ZM7.19103 9.3411L8.33358 9.70796V9.70795L7.19103 9.3411ZM8.07127 8.16427L7.22585 7.31264L7.22585 7.31264L8.07127 8.16427ZM8.11633 7.19117L7.02324 7.6863L7.02324 7.6863L8.11633 7.19117ZM7.73993 6.29472L8.87333 5.9005L7.73993 6.29472ZM7.59584 5.8471L6.44894 6.20009L6.44894 6.20009L7.59584 5.8471ZM7.04433 5L7.04443 3.8H7.04443L7.04433 5ZM6.09074 5.07616L5.2786 4.19273L5.27858 4.19275L6.09074 5.07616ZM10.7591 22.4C17.2761 22.4 22.5591 17.117 22.5591 10.6H20.1591C20.1591 15.7915 15.9506 20 10.7591 20V22.4ZM4.57309 20.6503C6.37257 21.76 8.49292 22.4 10.7591 22.4V20C8.95046 20 7.26452 19.4904 5.83285 18.6075L4.57309 20.6503ZM0.439856 22.7952L5.64283 20.7454L4.76312 18.5124L-0.439856 20.5622L0.439856 22.7952ZM0.537612 15.7383L-1.14892 21.3323L1.14892 22.0251L2.83545 16.4311L0.537612 15.7383ZM-1.04091 10.6C-1.04091 12.8328 -0.419606 14.9241 0.660191 16.7065L2.71287 15.4629C1.85386 14.045 1.35909 12.3821 1.35909 10.6H-1.04091ZM10.7591 -1.2C4.24213 -1.2 -1.04091 4.08304 -1.04091 10.6H1.35909C1.35909 5.40852 5.56762 1.2 10.7591 1.2V-1.2ZM22.5591 10.6C22.5591 4.08304 17.2761 -1.2 10.7591 -1.2V1.2C15.9506 1.2 20.1591 5.40852 20.1591 10.6H22.5591ZM6.43248 8.60627C6.08715 7.76365 6.19415 7.22223 6.32365 6.79557L4.02711 6.0985C3.78674 6.8904 3.60031 8.02448 4.21175 9.5164L6.43248 8.60627ZM9.17283 12.3225C7.96424 11.2214 6.83395 9.58586 6.43248 8.60627L4.21175 9.5164C4.76705 10.8714 6.12442 12.7919 7.55655 14.0966L9.17283 12.3225ZM10.996 13.6981C10.6741 13.5347 10.4841 13.4366 10.2518 13.2722C10.0138 13.1039 9.70367 12.8449 9.20754 12.3554L7.52185 14.0637C8.06613 14.6008 8.47989 14.9586 8.86573 15.2315C9.25732 15.5086 9.59109 15.6764 9.90947 15.8381L10.996 13.6981ZM11.2649 13.8357C11.1679 13.7854 11.0775 13.7395 10.996 13.6981L9.90947 15.8381C9.99197 15.8799 10.0731 15.9212 10.1591 15.9658L11.2649 13.8357ZM14.6365 14.672C14.3841 14.8022 14.0258 14.8556 13.4445 14.7244C12.8495 14.59 12.1341 14.287 11.2649 13.8357L10.1591 15.9658C11.0792 16.4435 12.0143 16.8619 12.9159 17.0655C13.8312 17.2721 14.8155 17.28 15.7365 16.805L14.6365 14.672ZM15.279 14.2278C15.3046 14.1747 15.297 14.2168 15.1672 14.3279C15.0502 14.428 14.8738 14.5496 14.6365 14.672L15.7365 16.805C16.424 16.4505 17.124 15.9281 17.4414 15.2691L15.279 14.2278ZM16.1144 14.6639C15.7555 14.5397 15.5678 14.2775 15.4877 14.1102C15.4152 13.9591 15.4042 13.8393 15.4018 13.8116C15.3967 13.7519 15.4056 13.7536 15.3897 13.8428C15.3768 13.9152 15.3552 14.0026 15.3293 14.0864C15.3168 14.127 15.3047 14.1621 15.2944 14.1895C15.2834 14.2186 15.2777 14.2305 15.279 14.2278L17.4414 15.2691C17.5709 15 17.6914 14.6064 17.7524 14.2642C17.7824 14.0963 17.8142 13.8552 17.7931 13.6075C17.7827 13.4858 17.7539 13.2857 17.6519 13.073C17.5423 12.8442 17.3133 12.5391 16.8994 12.3959L16.1144 14.6639ZM15.339 14.2973C15.4959 14.3758 15.6429 14.4494 15.7588 14.5061C15.8378 14.5448 15.9954 14.6227 16.1144 14.6639L16.8994 12.3959C16.9183 12.4024 16.9319 12.4078 16.9375 12.41C16.944 12.4126 16.9476 12.4142 16.9478 12.4142C16.9481 12.4144 16.9467 12.4138 16.9432 12.4122C16.9398 12.4107 16.9352 12.4086 16.9291 12.4058C16.9033 12.3938 16.8652 12.3756 16.8132 12.3502C16.7096 12.2995 16.574 12.2316 16.4134 12.1512L15.339 14.2973ZM15.0207 12.9081C14.7641 13.4409 14.2673 13.5437 14.1309 13.5631C13.9659 13.5867 13.8422 13.5663 13.8154 13.562C13.7446 13.5505 13.7148 13.5364 13.7603 13.5524C13.8321 13.5777 13.9618 13.6316 14.1473 13.7165C14.5084 13.8817 14.9595 14.1073 15.339 14.2973L16.4134 12.1512C16.0443 11.9665 15.5528 11.7202 15.1456 11.534C14.947 11.4431 14.736 11.3515 14.5569 11.2884C14.4769 11.2603 14.3441 11.2163 14.1982 11.1927C14.134 11.1824 13.9798 11.1604 13.7922 11.1872C13.6331 11.2098 13.1214 11.3207 12.8584 11.8668L15.0207 12.9081ZM14.1207 14.2304C14.3297 13.9844 14.5332 13.6936 14.6811 13.4698C14.8133 13.2699 14.9596 13.0349 15.0207 12.9081L12.8584 11.8668C12.8746 11.833 12.8846 11.8173 12.8705 11.8418C12.8622 11.8563 12.8485 11.8793 12.8297 11.9102C12.7922 11.9715 12.7401 12.054 12.6791 12.1462C12.5524 12.3378 12.4097 12.5376 12.2913 12.677L14.1207 14.2304ZM13.182 15.0355C13.3269 14.9449 13.4918 14.841 13.6581 14.7022C13.8299 14.5589 13.9723 14.4052 14.1207 14.2304L12.2913 12.677C12.1824 12.8052 12.1414 12.842 12.1208 12.8592C12.0947 12.8809 12.0581 12.9077 11.9096 13.0005L13.182 15.0355ZM8.58988 13.2894C9.3447 13.9672 10.1568 14.4818 10.8427 14.8084C11.1827 14.9703 11.5232 15.1011 11.8333 15.1764C11.9863 15.2136 12.1676 15.2462 12.3575 15.2499C12.5135 15.2529 12.851 15.2425 13.182 15.0354L11.9096 13.0005C12.1673 12.8394 12.3929 12.8501 12.4039 12.8503C12.4489 12.8512 12.4523 12.857 12.4 12.8443C12.2995 12.8199 12.1197 12.7583 11.8745 12.6415C11.3899 12.4108 10.7716 12.0229 10.1934 11.5037L8.58988 13.2894ZM6.04848 8.97425C5.92718 9.35204 6.00535 9.69093 6.04006 9.82466C6.0863 10.0028 6.15621 10.1719 6.22483 10.3162C6.36418 10.6092 6.56201 10.9322 6.7865 11.2532C7.23802 11.8989 7.87537 12.6478 8.58988 13.2894L10.1934 11.5037C9.62712 10.9952 9.10937 10.387 8.75337 9.87792C8.57411 9.62155 8.45508 9.41762 8.39221 9.28544C8.35973 9.21714 8.35719 9.19901 8.36311 9.22182C8.36637 9.23437 8.37736 9.27896 8.38145 9.34711C8.38524 9.4101 8.38643 9.54337 8.33358 9.70796L6.04848 8.97425ZM7.22585 7.31264C7.08166 7.45579 6.85395 7.68049 6.64389 7.93727C6.44151 8.18468 6.18731 8.54188 6.04848 8.97425L8.33358 9.70795C8.33305 9.70961 8.3408 9.68613 8.37129 9.63615C8.40108 9.58731 8.44379 9.52746 8.50152 9.45688C8.62122 9.31056 8.76222 9.16924 8.91669 9.01589L7.22585 7.31264ZM7.16469 7.81791C7.16469 7.61033 7.22021 7.45508 7.25085 7.38133C7.28441 7.30055 7.3196 7.2436 7.33722 7.21656C7.37114 7.1645 7.3961 7.13852 7.38467 7.15137C7.36307 7.17567 7.32101 7.21818 7.22585 7.31264L8.91669 9.01589C8.99072 8.9424 9.09537 8.83928 9.17818 8.74616C9.21896 8.70029 9.28555 8.62266 9.34805 8.52674C9.3769 8.48245 9.56469 8.20829 9.56469 7.81791H7.16469ZM7.02324 7.6863C7.05772 7.76243 7.08849 7.83036 7.11615 7.89258C7.14395 7.9551 7.16573 8.00538 7.18223 8.0454C7.20005 8.08862 7.20496 8.10366 7.20367 8.09968C7.20292 8.09738 7.19614 8.07664 7.18865 8.04321C7.18474 8.02577 7.17931 7.999 7.17464 7.96512C7.17015 7.93254 7.16469 7.88154 7.16469 7.81791H9.56469C9.56469 7.59031 9.49978 7.39985 9.48643 7.35873C9.45987 7.2769 9.42825 7.19659 9.40103 7.13055C9.34639 6.99804 9.27449 6.8397 9.20942 6.69603L7.02324 7.6863ZM6.60653 6.68893C6.72612 7.03275 6.90105 7.41656 7.02324 7.6863L9.20942 6.69603C9.07487 6.39901 8.95003 6.12101 8.87333 5.9005L6.60653 6.68893ZM6.44894 6.20009C6.49107 6.337 6.54345 6.50756 6.60653 6.68893L8.87333 5.9005C8.82656 5.76602 8.7862 5.63527 8.74275 5.49411L6.44894 6.20009ZM7.04423 6.2C6.95818 6.2 6.86103 6.18666 6.76045 6.15262C6.65996 6.1186 6.57469 6.07021 6.50611 6.01816C6.37707 5.92021 6.32446 5.82282 6.32059 5.8158C6.31528 5.80617 6.32664 5.82542 6.35396 5.90303C6.38063 5.9788 6.40877 6.06959 6.44894 6.20009L8.74275 5.49411C8.68058 5.2921 8.57844 4.94042 8.4227 4.65773C8.24288 4.33132 7.82046 3.80007 7.04443 3.8L7.04423 6.2ZM6.90287 5.95958C6.73529 6.11364 6.56505 6.17181 6.48467 6.19289C6.44553 6.20315 6.41899 6.20691 6.41258 6.20778C6.40557 6.20873 6.40857 6.20805 6.42609 6.20689C6.4639 6.20439 6.52742 6.20224 6.63635 6.2011C6.74308 6.2 6.8743 6.19999 7.04423 6.2L7.04443 3.8C6.73096 3.79998 6.46212 3.79928 6.26784 3.81211C6.15344 3.81967 5.66701 3.83567 5.2786 4.19273L6.90287 5.95958ZM6.32365 6.79557C6.42318 6.46765 6.58647 6.25046 6.9029 5.95956L5.27858 4.19275C4.78928 4.64259 4.29744 5.20786 4.02711 6.0985L6.32365 6.79557Z" fill="#36C811" mask="url(#path-1-inside-1_1_1356)"/>
</svg>
